HIERARCHY
ROOT Hips
{
  OFFSET -187.679 86.5976 -156.378
  CHANNELS 6 Xposition Yposition Zposition Zrotation Xrotation Yrotation
  JOINT LeftUpLeg
  {
    OFFSET 8.64259 1.95398 -2.38835
    CHANNELS 3 Zrotation Xrotation Yrotation
    JOINT LeftLeg
    {
      OFFSET 43.7702 0 0
      CHANNELS 3 Zrotation Xrotation Yrotation
      JOINT LeftFoot
      {
        OFFSET 40.6238 0 0
        CHANNELS 3 Zrotation Xrotation Yrotation
        JOINT LeftToeBase
        {
          OFFSET 12.7242 0 0
          CHANNELS 3 Zrotation Xrotation Yrotation
          End Site
          {
            OFFSET 0 0 0
          }
        }
      }
    }
  }
  JOINT RightUpLeg
  {
    OFFSET -8.2249 1.95398 -2.59336
    CHANNELS 3 Zrotation Xrotation Yrotation
    JOINT RightLeg
    {
      OFFSET 43.5653 0 0
      CHANNELS 3 Zrotation Xrotation Yrotation
      JOINT RightFoot
      {
        OFFSET 40.6238 0 0
        CHANNELS 3 Zrotation Xrotation Yrotation
        JOINT RightToeBase
        {
          OFFSET 12.7242 0 0
          CHANNELS 3 Zrotation Xrotation Yrotation
          End Site
          {
            OFFSET 0 0 0
          }
        }
      }
    }
  }
  JOINT Spine
  {
    OFFSET 0.165834 0.87714 6.61349
    CHANNELS 3 Zrotation Xrotation Yrotation
    JOINT Spine1
    {
      OFFSET 7.38963 1.71661e-005 0
      CHANNELS 3 Zrotation Xrotation Yrotation
      JOINT Spine2
      {
        OFFSET 11.9445 1.14441e-005 0
        CHANNELS 3 Zrotation Xrotation Yrotation
        JOINT Spine3
        {
          OFFSET 14.7254 4.19617e-005 0
          CHANNELS 3 Zrotation Xrotation Yrotation
          JOINT Spine4
          {
            OFFSET 10.9679 0 0
            CHANNELS 3 Zrotation Xrotation Yrotation
            JOINT RightShoulder
            {
              OFFSET 2.46616 -1.6653 3.69651
              CHANNELS 3 Zrotation Xrotation Yrotation
              JOINT RightArm
              {
                OFFSET 13.0012 0 0
                CHANNELS 3 Zrotation Xrotation Yrotation
                JOINT RightForeArm
                {
                  OFFSET 28.7848 1.52588e-005 0
                  CHANNELS 3 Zrotation Xrotation Yrotation
                  JOINT RightHand
                  {
                    OFFSET 26.5688 1.52588e-005 0
                    CHANNELS 3 Zrotation Xrotation Yrotation
                    End Site
                    {
                      OFFSET 0 0 0
                    }
                  }
                }
              }
            }
            JOINT LeftShoulder
            {
              OFFSET 2.38034 -1.29275 -3.7523
              CHANNELS 3 Zrotation Xrotation Yrotation
              JOINT LeftArm
              {
                OFFSET 16.3182 6.10352e-005 0
                CHANNELS 3 Zrotation Xrotation Yrotation
                JOINT LeftForeArm
                {
                  OFFSET 27.0901 0 0
                  CHANNELS 3 Zrotation Xrotation Yrotation
                  JOINT LeftHand
                  {
                    OFFSET 24.5451 1.52588e-005 0
                    CHANNELS 3 Zrotation Xrotation Yrotation
                    End Site
                    {
                      OFFSET 0 0 0
                    }
                  }
                }
              }
            }
            JOINT Neck
            {
              OFFSET 5.0226 -0.0266342 0
              CHANNELS 3 Zrotation Xrotation Yrotation
              JOINT Head
              {
                OFFSET 6.69363 2.86102e-005 0
                CHANNELS 3 Zrotation Xrotation Yrotation
                End Site
                {
                  OFFSET 0 0 0
                }
              }
            }
          }
        }
      }
    }
  }
}
MOTION
Frames:	18
Frame Time:	0.0416667
176.928 103.951 -181.36 98.314 -44.1305 97.0366 -173.331 -0.182003 91.6479 -24.0396 27.8318 7.81478 73.1592 6.63912 0.13673 15.8828 -7.75395 5.4721 174.019 -3.49763 90.6474 -15.4498 17.6679 3.91154 66.3613 -3.74796 1.64173 24.451 -1.39627 2.21063 0.267702 7.62453 -89.075 11.6142 0.9659 1.7432 -0.057503 1.04166 1.69901 -22.584 0.39746 1.95282 -2.57135 0.397449 1.95282 86.5824 -48.6955 -106.204 32.7339 -25.7425 -7.31036 -16.7502 -16.8139 -18.6352 -8.60538 0.0452427 -5.93573 -87.0967 -41.0403 81.6448 -30.0456 22.9334 -4.50899 8.32574 -8.81816 -19.0447 -3.31537 -0.10847 -2.48965 4.35506 -11.5355 -17.0456 8.46713 -8.17702 1.23722 
175.792 103.487 -181.097 96.9149 -44.463 98.0354 -171.985 4.36745 94.6609 -28.7678 29.0454 6.96303 74.7602 7.18818 -0.311314 14.6218 -7.45917 3.64441 173.09 2.38511 93.3171 -24.9393 15.3307 4.76423 67.2107 -3.74964 1.37738 25.4293 -1.33817 2.5759 0.30521 7.69611 -89.0418 11.4699 1.05502 1.80135 -0.201771 1.13328 1.75318 -22.7278 0.464983 2.03505 -2.71519 0.464983 2.03504 86.5893 -48.1916 -106.343 32.4432 -24.7464 -7.69947 -17.5509 -16.5683 -19.9046 -10.3766 0.0348476 -5.62649 -87.1308 -41.2506 81.6306 -28.8932 22.4185 -2.89916 8.29788 -9.23754 -18.4837 -3.66707 -0.104282 -2.5543 8.98295 -12.0783 -19.3533 7.4617 -7.5953 0.161917 
174.752 103.656 -180.773 95.5949 -43.8352 99.4997 -171.028 7.16608 98.1559 -30.5622 31.4572 6.94761 74.5658 7.22211 -0.21759 16.257 -7.10131 4.48404 169.787 7.03419 90.7567 -27.0167 14.0014 7.91297 62.8564 -1.91247 0.451165 28.1365 -1.37689 4.37428 0.213145 7.81567 -89.0852 11.2325 0.849785 1.73678 -0.439273 0.925391 1.6977 -22.9655 0.288632 1.91181 -2.95285 0.288632 1.9118 84.9481 -49.2937 -108.511 31.4045 -22.8226 -6.66963 -18.6099 -15.5357 -21.7493 -9.40252 -0.0242265 -4.91141 -87.4421 -40.5898 80.9735 -27.5098 23.1533 -1.968 7.45893 -11.4502 -15.8897 -2.67016 -0.0872088 -3.11967 12.6088 -13.1764 -21.4523 6.71157 -7.55115 -0.341233 
174.127 104.118 -180.374 94.1464 -41.7704 100.456 -170.663 9.17143 100.83 -30.6375 33.8125 6.97927 73.9319 7.13286 -0.887631 15.662 -7.34528 4.4111 168.425 9.23954 84.7629 -25.1602 18.0637 7.63507 60.414 -0.933773 0.426013 27.7515 -1.3573 4.04444 0.284532 7.82333 -89.2715 11.2196 0.905172 1.3616 -0.45165 0.964214 1.32044 -22.9819 0.454161 1.57064 -2.96926 0.454157 1.57063 86.1512 -48.6994 -106.864 32.631 -23.1401 -4.80094 -18.9059 -15.4234 -22.8763 -8.29244 -0.0795377 -4.13439 -86.8018 -39.2961 81.7856 -27.3134 22.8507 -1.46208 7.16768 -12.4119 -16.9444 -2.51247 -0.0823623 -3.13316 12.56 -14.8804 -23.9811 6.88743 -8.43137 1.89125 
173.442 104.026 -179.352 93.5588 -39.5959 102.376 -169.82 12.3454 104.446 -33.8807 37.5562 7.12181 74.6292 7.68684 -1.26453 15.0136 -7.90516 4.92545 168.312 9.87952 77.7297 -24.838 11.0853 3.09152 63.1717 -1.52285 -0.343293 24.7382 -1.49451 2.66776 0.450671 7.78201 -89.6262 11.3067 1.07108 0.637733 -0.36396 1.09811 0.589967 -22.9002 0.829895 0.930156 -2.88755 0.829899 0.930153 87.3641 -47.6466 -105.307 32.9813 -19.63 -2.00399 -18.7592 -11.6211 -23.1454 -8.50978 0.284602 -9.41673 -86.0638 -38.4296 82.8763 -25.8345 22.569 -0.883551 6.86377 -13.2412 -18.0625 -2.37697 -0.0830057 -3.21188 8.15823 -15.3591 -26.1315 8.83623 -9.32846 2.46245 
172.406 103.203 -177.332 93.3962 -37.7426 104.638 -169.196 15.9137 108.768 -39.1216 41.4429 8.22076 76.3146 8.63978 -1.02144 15.9636 -7.09588 4.18837 167.301 8.68982 72.512 -25.0134 2.95889 0.249593 63.0091 -1.18151 0.137648 24.8743 -1.5209 2.82516 0.48656 7.7939 -90.0059 11.2858 0.965615 -0.107273 -0.384811 0.959963 -0.149682 -22.9227 0.953203 0.187925 -2.91005 0.953218 0.187916 88.1364 -46.7142 -104.366 31.4321 -17.7074 0.135045 -20.1216 -13.6937 -24.3044 -6.67043 -0.187471 -1.88901 -85.1823 -37.4011 84.2174 -24.5251 19.7566 1.24328 7.58183 -11.8715 -18.5937 -2.67689 -0.0860413 -3.22081 6.46812 -16.0289 -29.1218 8.2865 -9.74709 3.29546 
169.821 101.339 -175.003 91.7673 -37.2215 105.683 -170.623 22.2873 112.848 -47.2631 42.6446 10.375 78.6563 9.71966 -1.46918 16.6964 -6.40064 3.44726 166.988 10.1357 70.4724 -26.8641 -3.10632 -0.693163 62.9735 -1.1054 0.261155 24.5651 -1.58871 2.85597 0.500144 7.72112 -90.338 11.4366 0.837267 -0.758337 -0.234268 0.803055 -0.794458 -22.771 1.02647 -0.471635 -2.75833 1.02646 -0.471643 90.3236 -44.9898 -101.328 30.2786 -18.1366 0.823477 -20.289 -12.3468 -25.8317 -7.52115 -0.0555217 -4.4082 -84.7068 -35.2391 84.6726 -23.9599 18.627 3.64332 7.82737 -11.6734 -18.5325 -3.00539 -0.0890775 -3.14068 7.22451 -17.3531 -32.272 7.46128 -10.1608 4.46408 
166.102 98.7359 -171.817 90.2458 -36.2375 106.632 -173.3 28.8962 118.068 -55.6793 44.0278 13.3336 81.1721 10.8336 -2.05422 16.8354 -5.75835 2.16993 167.315 10.2371 71.1765 -27.6534 -7.41547 -1.14372 62.2295 -1.12604 1.16208 23.6303 -1.67411 2.60111 0.342192 7.60859 -90.6786 11.6572 0.362539 -1.38963 -0.0144754 0.301028 -1.40424 -22.5452 0.763381 -1.21647 -2.53254 0.763382 -1.21648 90.6143 -45.6773 -100.688 28.1484 -14.4632 3.63974 -21.8712 -11.5179 -29.6036 -7.04274 -0.0849809 -3.86092 -84.9641 -33.3623 83.8545 -23.4061 19.5777 4.99159 7.58934 -11.975 -16.3326 -2.52529 -0.0897595 -2.43856 6.54206 -18.7222 -36.4001 6.9227 -10.8113 5.97925 
161.58 95.5502 -168.119 91.3496 -37.0192 106.243 -175.165 31.6861 121.527 -61.4843 43.5517 15.182 82.988 11.4393 -2.96129 20.8543 -5.36928 5.41457 168.191 11.7282 70.9758 -31.2929 -12.5734 -3.16308 58.8287 -0.470088 1.74925 24.7186 -1.31387 2.10447 0.180645 7.69791 -90.6894 11.4763 0.037419 -1.37716 -0.19539 -0.0232127 -1.37748 -22.7252 0.449558 -1.30227 -2.71252 0.449554 -1.30227 90.3078 -47.0256 -100.85 26.9383 -10.8799 5.42854 -22.6577 -10.3577 -31.9636 -7.6352 -0.174529 -2.49367 -85.2766 -32.916 83.1873 -21.4155 20.1796 3.39742 7.47485 -12.4457 -13.3115 -2.23012 -0.0847036 -2.54068 3.2592 -18.0004 -39.053 8.86814 -10.5865 6.43304 
156.266 92.0891 -163.372 94.4691 -39.3548 105.149 -175.273 29.9827 123.533 -62.7643 41.8626 16.3163 84.7442 11.8169 -3.83334 25.6511 -4.39222 8.68114 169.982 13.3117 70.8933 -38.1278 -18.3586 -6.09956 57.085 -0.0934973 1.56862 27.4372 -0.530788 0.761144 0.0188224 7.81092 -90.7218 11.2481 -0.298464 -1.40783 -0.423537 -0.360113 -1.39333 -22.9526 0.138416 -1.43243 -2.93995 0.138411 -1.43245 90.5155 -46.7214 -100.591 26.6532 -10.2847 7.99509 -25.0787 -12.2605 -35.4151 -6.35532 -0.121607 -2.98292 -85.3945 -34.3114 83.2481 -21.3533 16.8875 3.06695 7.02843 -14.4997 -16.6101 -1.18099 -0.0722446 -2.89864 0.881062 -16.3204 -34.6641 8.05046 -10.5079 5.71137 
149.79 89.1881 -156.714 99.9638 -43.3498 105.216 -172.133 23.4909 125.767 -57.4435 42.0942 17.2278 81.9645 10.315 -3.37126 31.7217 -2.57573 12.3314 169.706 13.0973 69.9648 -44.0564 -15.7452 -6.35309 64.3615 -2.44062 2.49344 44.1546 2.92097 -4.32337 -0.0883454 8.04323 -90.8317 10.7802 -0.559586 -1.60338 -0.891572 -0.629601 -1.57721 -23.4188 -0.0519066 -1.6974 -3.40615 -0.0519156 -1.69741 91.5409 -45.7194 -99.1848 25.7691 -10.2881 8.87704 -26.7091 -14.3571 -36.8299 -7.95926 -0.248514 -1.62297 -84.7715 -36.1778 84.7275 -23.661 14.1714 4.18694 6.99375 -14.0365 -22.2268 -1.24676 -0.0808446 -3.59024 1.24969 -13.1376 -24.4479 4.48646 -8.8854 6.36783 
142.037 90.4182 -148.667 106.423 -47.2911 106.329 -166.146 14.9182 127.711 -42.7917 50.3906 17.2694 61.4892 1.07625 -3.66072 36.6782 -0.638296 14.1802 168.324 14.1943 70.1666 -51.4469 -18.9235 -5.61842 71.8138 -4.90428 2.8148 44.3193 2.62583 -2.35014 -0.332218 8.28096 -90.5958 10.3064 -0.934291 -1.10033 -1.36465 -0.981818 -1.05815 -23.8972 -0.560443 -1.33022 -3.88458 -0.560439 -1.33022 91.3369 -45.9119 -99.4693 25.364 -10.2101 4.40986 -22.2099 -14.4851 -26.644 -13.0112 -0.308423 -2.22641 -84.5064 -37.1976 85.3686 -26.9402 8.95279 9.48595 8.42783 -10.6492 -27.9508 -1.67916 -0.0841767 -3.51386 -5.68995 -7.19965 -13.9083 4.48497 -5.74988 1.50881 
134.44 93.9127 -142.034 106.151 -48.7795 101.503 -169.1 13.6778 121.289 -42.1037 42.5668 17.0182 58.6907 0.877724 0.710267 13.2144 -8.86024 5.09245 168.444 12.195 72.246 -48.9453 -16.7227 -5.1727 76.1812 -6.60794 2.99815 41.8738 1.90434 0.27143 -0.404019 8.12056 -90.1446 10.6321 -0.871123 -0.208447 -1.03855 -0.879452 -0.169912 -23.5755 -0.768221 -0.460635 -3.56284 -0.768192 -0.460638 91.7233 -44.9582 -99.06 28.535 -8.96139 2.80556 -19.443 -10.5659 -21.9739 -14.9099 -0.307005 -2.6703 -84.4009 -38.4999 85.7627 -27.6518 8.33331 10.807 10.3386 -7.2423 -30.0273 -0.145073 -0.0447408 -2.02677 -11.3253 -4.65404 -9.07141 3.52991 -4.13372 2.70654 
128.98 97.0288 -138.182 105.201 -49.6055 97.9621 -168.251 15.534 112.401 -41.5911 16.4345 6.20924 69.0806 5.6094 1.60041 13.8539 -5.9784 -0.0463297 166.764 11.1141 72.6585 -43.4561 -19.4709 -3.14268 73.4439 -5.59104 2.94628 41.6806 1.68798 1.39761 -0.104154 8.07577 -90.152 10.722 -0.277364 -0.276659 -0.948986 -0.28927 -0.264192 -23.4841 -0.181409 -0.347235 -3.47145 -0.181398 -0.347231 93.0843 -42.4479 -97.3509 28.7821 -12.5876 1.17138 -19.8276 -12.0428 -23.0376 -13.1792 -0.0960065 -4.25822 -84.3843 -39.0839 85.8827 -29.2346 8.87153 9.97263 11.0614 -6.29931 -30.9209 -3.32127 -0.0960371 -3.2184 -14.3682 -3.77328 -4.7236 3.9104 -3.47254 4.39229 
124.607 99.6137 -135.766 104.084 -48.1958 95.2987 -168.25 17.8626 102.14 -47.4479 8.95756 1.36079 70.6727 5.81663 0.906052 16.0649 -5.58785 1.04792 167.498 7.98243 75.0537 -37.462 -15.7498 -2.2263 71.2797 -4.86492 2.12618 38.1451 0.888674 2.61113 -0.119457 8.19026 -90.21 10.4929 -0.334301 -0.387768 -1.17811 -0.35103 -0.372677 -23.713 -0.202299 -0.470309 -3.7003 -0.202302 -0.470304 93.722 -41.4974 -96.4616 26.3582 -11.1617 -1.06939 -21.9773 -11.8939 -28.3071 -12.4766 -0.193892 -3.29832 -84.3277 -38.282 85.8542 -28.2283 10.0506 11.3353 11.9899 -5.64622 -35.4219 -2.03132 -0.08121 -2.20236 -15.4423 -2.87552 -2.02925 4.1975 -2.57156 5.05273 
121.121 100.943 -133.955 102.624 -46.6374 93.5598 -168.918 19.4159 93.7942 -51.4664 17.6924 -0.0321955 71.3923 5.7396 -0.462725 21.1878 -4.77321 4.42774 169.731 6.11448 78.3795 -33.744 -11.1593 -2.18443 70.2065 -4.30277 0.819511 35.2802 -0.073641 4.66076 -0.106174 8.20789 -90.2894 10.4569 -0.344226 -0.544486 -1.21408 -0.367854 -0.52881 -23.7484 -0.164668 -0.622763 -3.73579 -0.164678 -0.622763 94.5814 -40.7405 -95.1254 25.1248 -7.3364 -1.70161 -24.9591 -10.641 -36.2012 -12.1569 -0.282585 -2.37849 -84.2089 -36.9463 85.852 -26.2799 9.53355 12.0818 11.8537 -6.23999 -39.3153 -1.52424 -0.07076 -2.02745 -17.112 -2.28376 -0.529167 4.81755 -1.98355 4.84413 
118.525 101.68 -132.031 101.662 -46.7364 92.8849 -169.972 17.1751 88.969 -48.4666 22.8644 -0.565696 71.6308 5.4011 -1.85918 22.1723 -4.87319 5.69632 170.919 4.9233 80.8426 -31.0547 -9.95185 -1.76703 70.2857 -4.03052 0.490279 31.6458 -0.602248 4.00161 -0.0102001 8.12602 -90.2427 10.6213 -0.131923 -0.470592 -1.04973 -0.152521 -0.464332 -23.5842 0.0155949 -0.488484 -3.57157 0.0155973 -0.48848 94.1468 -40.9766 -95.8335 25.1289 -6.10995 -0.499322 -26.2727 -9.80946 -40.6119 -11.6539 -0.34369 -1.62476 -83.6243 -35.8471 86.7227 -25.9106 6.92581 13.7845 12.2589 -6.14558 -45.175 -1.79717 -0.0751553 -1.87864 -18.504 -1.23357 -0.939796 5.29578 -0.919093 4.89612 
116.847 102.388 -129.998 101.064 -46.7171 93.0262 -173.083 11.862 86.2375 -40.7776 21.3376 1.48027 72.5033 5.9968 -1.29285 19.7096 -5.45907 4.38947 171.565 2.46992 82.9309 -26.588 -9.05966 -1.01851 68.8517 -3.51648 0.189543 30.7621 -0.968229 4.73723 -0.00230909 7.99299 -90.1631 10.8878 -0.0799834 -0.317104 -0.783185 -0.0938549 -0.313295 -23.318 0.0190339 -0.326489 -3.30539 0.0190318 -0.326487 94.4952 -41.1033 -95.2073 27.5695 -7.22003 0.606036 -27.58 -10.6844 -42.4075 -10.9872 -0.297721 -1.91611 -83.3905 -36.6367 87.2553 -26.274 5.24971 15.367 13.0589 -5.6718 -49.6212 -2.12461 -0.0819087 -1.95424 -18.5884 -0.363137 -1.04374 5.42669 -0.126503 3.67596 
